<?xml version="1.0" encoding="utf-8"?>
<!-- Generator: Adobe Illustrator 18.0.0, SVG Export Plug-In . SVG Version: 6.00 Build 0)  -->
<!DOCTYPE svg PUBLIC "-//W3C//DTD SVG 1.1//EN" "http://www.w3.org/Graphics/SVG/1.1/DTD/svg11.dtd">
<svg version="1.1" id="Layer_1" xmlns="http://www.w3.org/2000/svg" xmlns:xlink="http://www.w3.org/1999/xlink" x="0px" y="0px"
	 viewBox="0 0 512 512" enable-background="new 0 0 512 512" xml:space="preserve">
<g id="Layer_x0020_1">
	<g id="_1718628696080">
		<polygon fill="#B9282C" points="96.2,153.8 176.9,236 112.7,302.1 0,189.4 35.7,153.7 		"/>
		<polygon fill="#D42023" points="112.7,302.1 0,189.4 35.7,153.7 		"/>
		<polygon fill="#B9282C" points="348.8,411.3 348.8,470.9 315.2,504.6 200.9,390.3 266.3,327.2 		"/>
		<polygon fill="#D42023" points="348.8,470.9 315.2,504.6 200.9,390.3 		"/>
		<polygon fill="#B9282C" points="497.1,322.6 378.3,441.4 348.8,470.9 348.8,153.9 96.2,153.8 35.7,153.7 66.2,123.2 182,7.4 
			348.8,52.1 430.5,74 451.9,154 		"/>
		<polygon fill="#D42023" points="497.1,322.6 348.8,470.9 430.5,74 35.7,153.7 182,7.4 430.5,74 		"/>
	</g>
</g>
</svg>
